<svg xmlns="http://www.w3.org/2000/svg" viewBox="0 0 512 512">
  <rect width="512" height="512" rx="96" fill="#0f766e"/>
  <path d="M132 184h248c22 0 40 18 40 40v122c0 22-18 40-40 40h-30v58H162v-58h-30c-22 0-40-18-40-40V224c0-22 18-40 40-40Z" fill="#ffffff"/>
  <path d="M170 70h172c18 0 32 14 32 32v82H138v-82c0-18 14-32 32-32Z" fill="#dbeafe"/>
  <path d="M176 320h160v92H176z" fill="#172026"/>
  <path d="M188 336h136v16H188zm0 32h104v16H188z" fill="#ffffff"/>
  <circle cx="360" cy="248" r="18" fill="#b7791f"/>
</svg>
